<svg width="175" height="46" viewBox="0 0 175 46" fill="none" xmlns="http://www.w3.org/2000/svg">
<path d="M38.8371 5.9775C35.4996 2.43095 30.7643 0.216309 25.5122 0.216309C16.8834 0.216309 9.6507 6.19351 7.71964 14.2365L10.1865 13.5526C10.2944 13.5229 10.4061 13.5759 10.4511 13.6786C10.4961 13.7812 10.4591 13.8999 10.3638 13.9587C8.39879 15.1765 6.38994 16.6301 4.69683 18.072C-1.56349 23.5137 -0.50568 29.041 8.96011 25.2765C15.0298 22.9947 12.8112 20.9587 12.0249 20.0614C11.9616 19.9893 11.9334 19.9042 11.9406 19.8084C11.9478 19.7126 11.9886 19.6329 12.0619 19.571C12.606 19.1119 13.9556 19.581 14.7022 19.7653C15.7985 20.0363 16.8933 20.3351 17.9824 20.6373C18.0854 20.666 18.186 20.6484 18.2734 20.5866L24.2538 16.3474C24.3415 16.2851 24.3915 16.1962 24.3983 16.089C24.4056 15.9817 24.3674 15.8867 24.2889 15.8138C23.4122 15.0002 20.9221 12.8867 20.4729 12.5039C20.2498 12.3138 19.491 11.6803 18.6864 10.9941C17.8722 10.3003 17.0112 9.55268 16.6108 9.15807C16.5349 9.08327 16.5002 8.98824 16.5093 8.88215C16.5189 8.77605 16.57 8.68866 16.6577 8.62836C17.775 7.86203 20.2384 9.22333 21.1459 9.65305C21.3416 9.74579 21.5376 9.83967 21.7332 9.93432C22.4985 10.3049 23.2658 10.6903 24.0353 11.0808C24.1421 11.1349 24.2595 11.1319 24.3632 11.072L24.9242 10.748C25.1957 10.5911 25.5457 10.685 25.7025 10.9567C25.807 11.138 25.8001 11.354 25.7032 11.5246C25.6552 11.6097 25.6449 11.7005 25.6731 11.7944C25.7013 11.8879 25.7601 11.9581 25.8474 12.0024C26.509 12.3375 27.1717 12.6695 27.8353 12.992C28.0442 13.0935 28.4263 13.3435 28.7028 13.4152C28.8126 13.4439 28.9198 13.4206 29.0075 13.3484C30.7185 11.9482 34.0944 9.85494 36.302 9.52559C37.5287 9.3424 38.7699 9.46834 39.1463 10.2099C39.152 10.2213 39.1578 10.2312 39.1646 10.2419C39.618 10.9388 39.1063 12.0776 38.3345 13.0492C36.9457 14.7979 33.4466 16.6771 31.3794 17.4602C31.2733 17.5003 31.1994 17.5816 31.1692 17.6911C31.0934 17.9666 31.1185 18.4227 31.1017 18.6547C31.0491 19.3909 31.0049 20.1313 30.9641 20.8724C30.9587 20.9701 30.99 21.056 31.0568 21.1274C31.1235 21.1987 31.2074 21.2354 31.3054 21.2361C31.5014 21.2377 31.6917 21.3395 31.7965 21.5208C31.9533 21.7926 31.8595 22.1429 31.5879 22.2997L31.027 22.6238C30.9233 22.6837 30.8619 22.7837 30.8554 22.9035C30.7967 23.9858 30.733 25.0628 30.6464 26.1215C30.5645 27.1233 30.5111 29.939 29.2889 30.5236C29.1928 30.5694 29.0917 30.5702 28.9953 30.5252C28.8988 30.4801 28.834 30.4023 28.8073 30.2992C28.5262 29.2162 27.9493 25.8593 27.8433 25.2792C27.7369 24.6983 27.1531 21.4834 26.8873 20.3168C26.8632 20.2118 26.7999 20.1317 26.7038 20.0843C26.6078 20.037 26.5052 20.0355 26.4079 20.0805L19.7484 23.1443C19.6511 23.189 19.5859 23.2672 19.5588 23.371C19.2755 24.4659 18.9872 25.5643 18.6734 26.65C18.4587 27.3935 18.3245 29.0372 17.6468 29.2673C17.4714 29.3268 17.2815 29.2127 17.214 29.0398C15.3108 24.1782 11.049 29.7722 12.5488 31.4064C13.1506 32.062 13.7599 32.7188 14.3743 33.3768C18.024 37.2847 21.8484 41.2232 25.246 45.0896C25.3166 45.1697 25.405 45.2159 25.5118 45.2163C25.6186 45.2167 25.7074 45.1709 25.7784 45.0911C31.0102 39.1944 40.6392 30.8152 43.1827 22.4887C43.8912 20.1694 44.1181 17.0725 43.4462 14.7246C43.2117 13.9056 38.7089 16.3283 38.9412 15.7993C39.2142 15.1773 47.9227 11.4605 47.7594 7.36895C47.6706 5.14439 44.2985 4.12962 38.8371 5.9775Z" fill="#FF715B"/>
<path fill-rule="evenodd" clip-rule="evenodd" d="M128.596 11.2915L128.667 11.321C129.11 11.5161 129.433 11.8617 129.602 12.2671C129.771 12.6762 129.783 13.1473 129.598 13.5844C129.182 14.6406 128.693 15.9182 128.159 17.3153C126.209 22.4143 123.651 29.1046 121.806 32.4262C121.666 32.759 121.439 33.0305 121.16 33.218C120.876 33.4093 120.539 33.5159 120.186 33.5159C119.823 33.5159 119.482 33.4101 119.196 33.2218C118.909 33.032 118.679 32.759 118.539 32.4262C116.998 29.6522 115.675 26.051 114.352 22.4493C113.201 19.3176 112.051 16.1855 110.756 13.5965C110.58 13.1556 110.598 12.6792 110.769 12.2663C110.939 11.8557 111.263 11.5048 111.701 11.3127L111.707 11.3112C112.159 11.1199 112.638 11.135 113.052 11.3044C113.474 11.4776 113.831 11.8126 114.025 12.2527L120.186 27.1448C120.856 25.5253 121.558 23.8825 122.263 22.2305C123.689 18.8888 125.132 15.5098 126.369 12.2119C126.552 11.7967 126.893 11.4798 127.295 11.3112C127.698 11.1403 128.165 11.1184 128.596 11.2915ZM151.059 29.9118H139.818V24.0776H149.481C149.971 24.0776 150.411 23.8825 150.73 23.5657C151.048 23.2481 151.242 22.8079 151.242 22.3156C151.242 21.8354 151.045 21.3908 150.723 21.0694C150.407 20.7533 149.969 20.5544 149.48 20.5544H139.817V14.8019H150.786C151.278 14.8019 151.718 14.6083 152.036 14.2899C152.354 13.9723 152.548 13.5315 152.548 13.0399C152.548 12.5484 152.354 12.1083 152.035 11.7899C151.717 11.473 151.277 11.2779 150.787 11.2779H138.057C137.576 11.2779 137.132 11.4753 136.81 11.7967C136.494 12.1128 136.295 12.5506 136.295 13.0399V31.673C136.295 32.1616 136.494 32.5994 136.81 32.9163C137.132 33.2377 137.576 33.435 138.057 33.435H151.059C151.551 33.435 151.991 33.2399 152.307 32.9216C152.626 32.6032 152.821 32.1631 152.821 31.673C152.821 31.1823 152.627 30.7421 152.309 30.423C151.991 30.1062 151.551 29.9118 151.059 29.9118ZM80.002 30.2362C79.6549 29.9753 79.2087 29.8415 78.7474 29.8846C78.6968 29.8838 78.5614 29.8748 78.3769 29.781C78.1409 29.66 77.8377 29.4089 77.5314 28.894C77.1057 28.1385 76.624 27.4352 76.1007 26.7917C75.7165 26.3183 75.3089 25.8782 74.8854 25.4736L75.1214 25.3783C75.4057 25.2573 75.6772 25.1212 75.9343 24.9783L75.9388 24.9768C77.0233 24.3552 77.8574 23.5127 78.42 22.4835C78.9796 21.4611 79.2692 20.261 79.2692 18.9157C79.2692 18.3138 79.2261 17.733 79.1339 17.1802C79.0416 16.6282 78.8979 16.1041 78.6968 15.6148C78.5236 15.1671 78.3134 14.7482 78.0661 14.364C77.8188 13.9806 77.5277 13.6252 77.1934 13.3001C76.773 12.8804 76.2754 12.5083 75.7203 12.2005C75.1773 11.9003 74.5845 11.6644 73.9598 11.5101C73.063 11.2794 72.3725 11.2787 72.2583 11.2787H64.1797C63.6882 11.2787 63.2473 11.473 62.9312 11.7914C62.6121 12.1098 62.4177 12.5499 62.4177 13.0399V31.7003C62.4177 32.1805 62.6151 32.6251 62.9365 32.9465C63.2526 33.2626 63.6904 33.4623 64.1797 33.4623C64.6675 33.4623 65.1046 33.2634 65.4229 32.945C65.7443 32.6236 65.9417 32.1797 65.9417 31.7003V14.8019H72.2591C72.306 14.8019 72.7038 14.8125 73.2203 14.9569C73.4963 15.0341 73.8033 15.149 74.102 15.3191C74.3417 15.4628 74.5512 15.6262 74.7327 15.8092C74.9164 15.9929 75.073 16.1979 75.2046 16.4225C75.3861 16.7371 75.5207 17.1008 75.6106 17.5107C75.7029 17.9304 75.7475 18.3992 75.7475 18.9149C75.7475 19.6538 75.6265 20.261 75.3717 20.751C75.1229 21.2305 74.7402 21.6116 74.2109 21.9133C73.7216 22.1894 73.1212 22.3981 72.4119 22.5402C71.6897 22.6839 70.8586 22.7565 69.9194 22.7565C69.4619 22.7565 69.0369 22.9267 68.72 23.2125C68.4054 23.4953 68.1952 23.8924 68.1597 24.3499C68.1105 24.8028 68.236 25.2316 68.4863 25.5696C68.7382 25.9099 69.117 26.158 69.5723 26.2449L69.6124 26.2533H69.6471C69.663 26.2533 69.8732 26.3213 70.2756 26.5126C70.5213 26.6299 70.8162 26.7902 71.1407 27.0034L71.1437 27.0049C71.7918 27.4201 72.3967 27.9336 72.9533 28.5378C73.5182 29.1503 74.0332 29.8574 74.496 30.6491C74.9474 31.4341 75.4571 31.9876 75.9532 32.3816C76.4553 32.7801 76.9439 33.0176 77.3431 33.1651L77.359 33.1696C77.7114 33.283 78.0283 33.345 78.296 33.3753C78.7384 33.426 79.0628 33.3942 79.1989 33.3753C79.6753 33.305 80.0814 33.0403 80.3498 32.6765C80.6175 32.3128 80.7499 31.8455 80.6796 31.3706C80.61 30.8972 80.3559 30.5009 80.002 30.2362ZM174.25 30.451C173.932 30.1334 173.492 29.939 173.001 29.939H162.902V13.0399C162.902 12.5499 162.708 12.1098 162.39 11.7907C162.072 11.473 161.632 11.2787 161.141 11.2787C160.661 11.2787 160.216 11.4761 159.895 11.7975C159.578 12.1136 159.379 12.5514 159.379 13.0407V31.701C159.379 32.188 159.578 32.6251 159.896 32.9442C160.218 33.2656 160.662 33.463 161.141 33.463H173.001C173.492 33.463 173.933 33.2679 174.25 32.9511C174.567 32.6334 174.762 32.1933 174.762 31.701C174.762 31.2087 174.567 30.7679 174.25 30.451ZM98.8922 11.5487C99.1683 11.7203 99.3981 11.9691 99.5403 12.2708C100.559 14.3526 101.572 16.4403 102.586 18.5287C104.596 22.6695 106.607 26.8135 108.661 30.9214C108.863 31.3418 108.878 31.8099 108.735 32.2251C108.593 32.6395 108.292 33.004 107.864 33.218L107.826 33.2377C107.388 33.4562 106.912 33.4706 106.493 33.3284C106.074 33.187 105.71 32.8868 105.496 32.4761C105.032 31.5479 104.581 30.606 104.13 29.6657L104.13 29.6653L104.129 29.665C103.899 29.1853 103.67 28.7061 103.439 28.2292C102.818 28.0644 102.179 27.9691 101.52 27.9457C100.799 27.92 100.052 27.9797 99.2772 28.1234C98.5527 28.2542 97.8124 28.4538 97.0554 28.7231C96.2999 28.9915 95.5286 29.3311 94.7444 29.7432C93.8301 30.2272 93.0051 30.7505 92.3139 31.2314C90.9573 32.1752 90.1262 32.9465 90.1088 32.9639C89.9523 33.1204 89.7594 33.2445 89.5537 33.3292C89.3412 33.4161 89.1151 33.4623 88.8996 33.4623C88.7204 33.4623 88.5276 33.4335 88.337 33.37C88.1608 33.3118 87.9899 33.224 87.8371 33.1053C87.5044 32.8558 87.276 32.4996 87.1823 32.1109C87.0892 31.7252 87.1255 31.3055 87.3169 30.9229L96.374 12.255C96.5313 11.9585 96.7597 11.7128 97.0327 11.5434C97.3072 11.374 97.6218 11.2787 97.953 11.2787C98.288 11.2787 98.6147 11.3762 98.8922 11.5487ZM98.6192 24.6682C99.2424 24.5578 99.8564 24.4807 100.465 24.4459C100.833 24.4247 101.199 24.4187 101.563 24.43L97.956 17.0554L93.387 26.4975C94.1984 26.0801 95.0151 25.7239 95.8303 25.4305C96.7711 25.0917 97.705 24.8384 98.6162 24.6697L98.6192 24.6682Z" fill="#2C2C2C"/>
</svg>
