<svg width="21" height="21" viewBox="0 0 21 21" fill="none" xmlns="http://www.w3.org/2000/svg">
<path d="M20.5236 19.1139L16.3426 14.9328C17.6129 13.4064 18.3778 11.4448 18.3778 9.30954C18.3778 4.45122 14.4266 0.5 9.56829 0.5C4.71172 0.5 0.760498 4.45122 0.760498 9.30779C0.760498 14.1644 4.71172 18.1156 9.56829 18.1156C11.7053 18.1156 13.6651 17.3506 15.1916 16.0803L19.3727 20.2614C19.5323 20.421 19.7394 20.5 19.9481 20.5C20.1552 20.5 20.364 20.421 20.5236 20.2614C20.8412 19.9456 20.8412 19.4315 20.5236 19.1139ZM2.38696 9.30779C2.38696 5.34779 5.60829 2.12646 9.56829 2.12646C13.5283 2.12646 16.7514 5.34779 16.7514 9.30779C16.7514 13.2678 13.5283 16.4909 9.56829 16.4909C5.60829 16.4909 2.38696 13.2678 2.38696 9.30779Z" fill="#2C2C2C"/>
</svg>
