<svg width="20" height="21" viewBox="0 0 20 21" fill="none" xmlns="http://www.w3.org/2000/svg">
<path fill-rule="evenodd" clip-rule="evenodd" d="M5.27233 5.43636C5.27233 8.33636 7.44506 10.6909 10.1178 10.6909C12.7905 10.6909 14.9632 8.33636 14.9632 5.43636C14.9632 2.62727 12.8814 0.5 10.1178 0.5C7.35415 0.5 5.27233 2.62727 5.27233 5.43636ZM6.73596 5.44545C6.73596 3.42727 8.15415 1.96364 10.1178 1.96364C12.0451 1.96364 13.4996 3.45455 13.4996 5.44545C13.4996 7.54545 11.9814 9.24545 10.1178 9.24545C8.25415 9.24545 6.73596 7.53636 6.73596 5.44545ZM0.799561 19.7727C0.799561 20.1727 1.12683 20.5 1.52683 20.5H18.7087C19.1087 20.5 19.4359 20.1727 19.4359 19.7727C19.4359 14.6091 16.1268 11.7636 10.1177 11.7636C4.10865 11.7636 0.799561 14.6091 0.799561 19.7727ZM17.9541 19.0364H2.29047C2.57229 15.1818 5.19956 13.2182 10.1177 13.2182C15.0359 13.2182 17.6632 15.1727 17.9541 19.0364Z" fill="#2C2C2C"/>
</svg>
