<svg width="19" height="27" viewBox="0 0 19 27" fill="none" xmlns="http://www.w3.org/2000/svg">
<path fill-rule="evenodd" clip-rule="evenodd" d="M4.47277 7.08598C4.47277 10.7593 6.64549 13.7417 9.31822 13.7417C11.9909 13.7417 14.1637 10.7593 14.1637 7.08598C14.1637 3.5278 12.0819 0.833252 9.31822 0.833252C6.55459 0.833252 4.47277 3.5278 4.47277 7.08598ZM5.9364 7.0975C5.9364 4.54113 7.35459 2.68719 9.31822 2.68719C11.2455 2.68719 12.7 4.57568 12.7 7.0975C12.7 9.75749 11.1819 11.9108 9.31822 11.9108C7.45459 11.9108 5.9364 9.74598 5.9364 7.0975ZM0 25.2455C0 25.7522 0.327273 26.1667 0.727273 26.1667H17.9091C18.3091 26.1667 18.6364 25.7522 18.6364 25.2455C18.6364 18.7049 15.3273 15.1007 9.31818 15.1007C3.30909 15.1007 0 18.7049 0 25.2455ZM17.1545 24.3128H1.49091C1.77273 19.4303 4.4 16.9431 9.31818 16.9431C14.2364 16.9431 16.8636 19.4188 17.1545 24.3128Z" fill="#2C2C2C"/>
</svg>
