<svg width="113" height="30" viewBox="0 0 113 30" fill="none" xmlns="http://www.w3.org/2000/svg">
<path fill-rule="evenodd" clip-rule="evenodd" d="M66.8339 1.02853L66.9049 1.06589C67.3481 1.31302 67.6717 1.75077 67.8404 2.26419C68.0098 2.7824 68.0211 3.37915 67.8358 3.9328C67.4201 5.27062 66.9316 6.88897 66.3973 8.65864C64.4475 15.1174 61.8892 23.5917 60.0438 27.7991C59.9039 28.2206 59.677 28.5645 59.398 28.802C59.1144 29.0444 58.7771 29.1794 58.424 29.1794C58.061 29.1794 57.7207 29.0453 57.4341 28.8068C57.1475 28.5664 56.9176 28.2206 56.7777 27.7991C55.2366 24.2854 53.9135 19.7238 52.5903 15.1617C51.4398 11.1948 50.2891 7.22751 48.9947 3.94813C48.8186 3.38969 48.8359 2.78623 49.0068 2.26323C49.177 1.74311 49.5014 1.29865 49.9393 1.05535L49.9453 1.05344C50.3975 0.811096 50.8762 0.830254 51.2906 1.04482C51.7126 1.26417 52.0695 1.68851 52.2631 2.24599L58.424 21.1094C59.0947 19.058 59.7959 16.977 60.5011 14.8846C61.9276 10.6517 63.37 6.3717 64.6068 2.19426C64.7898 1.66839 65.1316 1.26704 65.5332 1.05344C65.9362 0.836959 66.4028 0.80918 66.8339 1.02853ZM89.2973 24.6142H78.0561V17.2242H87.719C88.2091 17.2242 88.6492 16.9771 88.9683 16.5757C89.2859 16.1734 89.4803 15.6159 89.4803 14.9924C89.4803 14.3841 89.2829 13.8209 88.9615 13.4138C88.6454 13.0134 88.2076 12.7615 87.7183 12.7615H78.0554V5.47495H89.0243C89.5158 5.47495 89.9567 5.22973 90.2743 4.82647C90.5919 4.42416 90.7862 3.86572 90.7862 3.2431C90.7862 2.62049 90.5919 2.06301 90.2728 1.65974C89.9552 1.25839 89.5151 1.01126 89.025 1.01126H76.2949C75.8147 1.01126 75.3701 1.26127 75.0487 1.66836C74.7326 2.06875 74.5329 2.62336 74.5329 3.2431V26.8451C74.5329 27.4639 74.7318 28.0185 75.0487 28.4198C75.3701 28.8269 75.8147 29.0769 76.2949 29.0769H89.2973C89.7888 29.0769 90.2289 28.8298 90.5458 28.4265C90.8641 28.0233 91.0592 27.4658 91.0592 26.8451C91.0592 26.2234 90.8649 25.6659 90.5473 25.2617C90.2289 24.8604 89.7888 24.6142 89.2973 24.6142ZM18.2403 25.0254C17.8932 24.6949 17.447 24.5254 16.9857 24.58C16.935 24.579 16.7997 24.5675 16.6152 24.4488C16.3792 24.2955 16.076 23.9775 15.7697 23.3252C15.344 22.3683 14.8623 21.4774 14.339 20.6623C13.9548 20.0627 13.5472 19.5052 13.1237 18.9927L13.3597 18.872C13.644 18.7188 13.9155 18.5464 14.1726 18.3653L14.1771 18.3634C15.2615 17.576 16.0956 16.509 16.6583 15.2053C17.2179 13.9102 17.5075 12.3901 17.5075 10.6861C17.5075 9.92358 17.4644 9.18794 17.3721 8.48773C17.2799 7.78849 17.1362 7.12468 16.935 6.50494C16.7619 5.93788 16.5516 5.40722 16.3044 4.92062C16.0571 4.43498 15.7659 3.98478 15.4317 3.57289C15.0112 3.04127 14.5136 2.57 13.9586 2.18015C13.4156 1.79987 12.8227 1.50101 12.1981 1.30561C11.3012 1.01346 10.6108 1.0125 10.4966 1.0125H2.41799C1.92645 1.0125 1.48557 1.25867 1.16948 1.66194C0.850353 2.0652 0.656006 2.62268 0.656006 3.24338V26.8798C0.656006 27.4881 0.853378 28.0513 1.17477 28.4584C1.49087 28.8588 1.92872 29.1117 2.41799 29.1117C2.90574 29.1117 3.34284 28.8598 3.6612 28.4565C3.98259 28.0494 4.17997 27.4871 4.17997 26.8798V5.47523H10.4974C10.5443 5.47523 10.942 5.48864 11.4585 5.67159C11.7346 5.76929 12.0416 5.91489 12.3403 6.13041C12.58 6.31241 12.7895 6.51931 12.971 6.75111C13.1547 6.98387 13.3113 7.24346 13.4428 7.52795C13.6243 7.92642 13.7589 8.38716 13.8489 8.90632C13.9412 9.43794 13.9858 10.0318 13.9858 10.6851C13.9858 11.6209 13.8648 12.3901 13.61 13.0108C13.3612 13.6181 12.9785 14.1009 12.4492 14.4831C11.9599 14.8327 11.3595 15.0971 10.6501 15.2771C9.92796 15.4591 9.09688 15.5511 8.15766 15.5511C7.70015 15.5511 7.27515 15.7666 6.9583 16.1287C6.64371 16.4869 6.43349 16.9898 6.39794 17.5693C6.34879 18.1431 6.47432 18.6862 6.72463 19.1144C6.97645 19.5454 7.35531 19.8596 7.81055 19.9697L7.85063 19.9803H7.88542C7.9013 19.9803 8.11153 20.0665 8.51383 20.3088C8.7596 20.4573 9.05453 20.6604 9.37894 20.9305L9.38197 20.9324C10.03 21.4583 10.635 22.1087 11.1916 22.874C11.7565 23.6499 12.2715 24.5455 12.7343 25.5484C13.1857 26.5427 13.6954 27.2438 14.1915 27.7429C14.6936 28.2477 15.1821 28.5484 15.5814 28.7352L15.5973 28.741C15.9497 28.8847 16.2665 28.9632 16.5342 29.0015C16.9766 29.0657 17.3011 29.0255 17.4372 29.0015C17.9136 28.9124 18.3197 28.5772 18.5881 28.1164C18.8558 27.6557 18.9882 27.0637 18.9178 26.4622C18.8483 25.8626 18.5942 25.3607 18.2403 25.0254ZM112.488 25.2974C112.17 24.8951 111.73 24.649 111.239 24.649H101.14V3.24338C101.14 2.62268 100.946 2.0652 100.628 1.66098C100.311 1.25867 99.8707 1.0125 99.3791 1.0125C98.8989 1.0125 98.4543 1.2625 98.1329 1.6696C97.8168 2.06999 97.6171 2.6246 97.6171 3.24434V26.8808C97.6171 27.4977 97.816 28.0513 98.1344 28.4555C98.4565 28.8626 98.9004 29.1126 99.3791 29.1126H111.239C111.73 29.1126 112.171 28.8655 112.488 28.4642C112.806 28.0618 113 27.5044 113 26.8808C113 26.2572 112.806 25.6988 112.488 25.2974ZM37.1305 1.35446C37.4065 1.5719 37.6364 1.88704 37.7786 2.26923C38.7965 4.90546 39.8096 7.54912 40.8231 10.1938L40.8239 10.1959C42.8338 15.4408 44.8454 20.6899 46.8993 25.8932C47.1012 26.4258 47.1163 27.0187 46.9734 27.5446C46.8312 28.0695 46.5303 28.5312 46.1022 28.8023L46.0644 28.8272C45.6266 29.104 45.1502 29.1222 44.7312 28.9421C44.3123 28.763 43.9478 28.3827 43.7345 27.8626C43.2705 26.6869 42.819 25.494 42.3682 24.3031L42.3682 24.303L42.3681 24.3028L42.368 24.3025L42.3679 24.3023C42.1379 23.6946 41.9081 23.0874 41.6769 22.4832C41.056 22.2744 40.417 22.1537 39.7584 22.124C39.0377 22.0914 38.2898 22.1671 37.5154 22.3491C36.791 22.5148 36.0506 22.7677 35.2937 23.1087C34.5382 23.4487 33.7669 23.8788 32.9827 24.4009C32.0684 25.0139 31.2434 25.6768 30.5522 26.286C29.1956 27.4814 28.3645 28.4584 28.3471 28.4804C28.1905 28.6787 27.9977 28.8358 27.792 28.9431C27.5795 29.0532 27.3534 29.1117 27.1379 29.1117C26.9587 29.1117 26.7658 29.0753 26.5753 28.9948C26.3991 28.9211 26.2282 28.8099 26.0754 28.6596C25.7427 28.3435 25.5143 27.8923 25.4205 27.4C25.3275 26.9114 25.3638 26.3798 25.5551 25.8951L34.6123 2.24911C34.7696 1.87363 34.998 1.56232 35.271 1.34776C35.5455 1.13319 35.8601 1.0125 36.1913 1.0125C36.5263 1.0125 36.853 1.13607 37.1305 1.35446ZM36.8575 17.9726C37.4806 17.8327 38.0947 17.735 38.7034 17.691C39.0717 17.6641 39.4377 17.6565 39.8015 17.6709L36.1943 8.32969L31.6253 20.2897C32.4367 19.7609 33.2534 19.3098 34.0686 18.9381C35.0093 18.509 35.9433 18.1881 36.8545 17.9745L36.8575 17.9726Z" fill="#2C2C2C"/>
</svg>
